<svg width="639" height="364" viewBox="0 0 639 364" fill="none" xmlns="http://www.w3.org/2000/svg">
<path d="M0 375.127V374.427C0.144761 372.135 0.313647 369.915 0.506662 367.623C8.37202 248.195 60.9203 137.139 148.477 54.9148C236.419 -27.6714 351.335 -73.1506 472.066 -73.1506C473.538 -73.1506 474.986 -73.1506 476.433 -73.1265C515.157 -72.7887 553.712 -67.6979 590.988 -58.023C606.139 -54.1627 621.315 -49.4339 636.129 -43.9089L639 -42.8473L635.96 -42.6301C618.299 -41.3514 600.325 -38.9628 582.543 -35.5609C525.314 -24.6797 471.222 -3.44804 421.81 27.5067C298.691 104.351 218.903 230.824 202.859 374.548L202.786 375.151H0V375.127Z" fill="#EFC100"/>
</svg>
